<svg id="Group_895" data-name="Group 895" xmlns="http://www.w3.org/2000/svg" xmlns:xlink="http://www.w3.org/1999/xlink" width="76.898" height="25.154" viewBox="0 0 76.898 25.154">
  <defs>
    <clipPath id="clip-path">
      <path id="Path_160" data-name="Path 160" d="M145.9,336.012l-3.467-2-6.688-3.862c-.371-.214-.741-.085-.741.364v15.733c0,.336.264.481.587.295l6.842-3.951,3.467-2,3.333-1.924c.391-.226.353-.536.024-.714S145.9,336.012,145.9,336.012Z" transform="translate(-135.006 -330.047)" fill="none"/>
    </clipPath>
    <linearGradient id="linear-gradient" x1="0.5" x2="0.5" y2="1" gradientUnits="objectBoundingBox">
      <stop offset="0" stop-color="#0066a3"/>
      <stop offset="0.388" stop-color="#398fa8"/>
      <stop offset="0.8" stop-color="#70b6ad"/>
      <stop offset="1" stop-color="#86c6b0"/>
    </linearGradient>
    <linearGradient id="linear-gradient-2" y1="0.5" x2="1" y2="0.5" gradientUnits="objectBoundingBox">
      <stop offset="0" stop-color="#4bb099"/>
      <stop offset="1" stop-color="#e7e683"/>
    </linearGradient>
    <linearGradient id="linear-gradient-3" x1="0.5" x2="0.5" y2="1" gradientUnits="objectBoundingBox">
      <stop offset="0" stop-color="#de2022"/>
      <stop offset="0.266" stop-color="#bd233e"/>
      <stop offset="0.76" stop-color="#862a6f"/>
      <stop offset="1" stop-color="#712d82"/>
    </linearGradient>
    <linearGradient id="linear-gradient-4" x1="0.5" x2="0.5" y2="1" gradientUnits="objectBoundingBox">
      <stop offset="0" stop-color="#ea7260"/>
      <stop offset="0.025" stop-color="#ea745f"/>
      <stop offset="0.682" stop-color="#f9ab58"/>
      <stop offset="1" stop-color="#ffc156"/>
    </linearGradient>
  </defs>
  <path id="Path_155" data-name="Path 155" d="M173.539,317.829a3.4,3.4,0,0,1-3.4,3.4h-70.1a3.4,3.4,0,0,1-3.4-3.4V299.473a3.4,3.4,0,0,1,3.4-3.4h70.1a3.4,3.4,0,0,1,3.4,3.4Z" transform="translate(-96.641 -296.074)" fill="#505050"/>
  <g id="PLAY" transform="translate(5.768 5.108)">
    <g id="Group_890" data-name="Group 890" clip-path="url(#clip-path)">
      <path id="Path_156" data-name="Path 156" d="M135.006,328.285V345.32l8.59-8.517Z" transform="translate(-135.006 -328.55)" fill="url(#linear-gradient)"/>
      <path id="Path_157" data-name="Path 157" d="M145.9,334.165l-3.467-2-7.429-4.29v.062l8.59,8.517Z" transform="translate(-135.006 -328.2)" fill="url(#linear-gradient-2)"/>
      <path id="Path_158" data-name="Path 158" d="M135.006,393.455v.062l7.429-4.29,3.467-2-2.307-2.287Z" transform="translate(-135.006 -376.685)" fill="url(#linear-gradient-3)"/>
      <path id="Path_159" data-name="Path 159" d="M194.447,369.721l-2.307,2.288,2.307,2.287,3.963-2.288Z" transform="translate(-183.55 -363.756)" fill="url(#linear-gradient-4)"/>
    </g>
  </g>
  <g id="Group_891" data-name="Group 891" transform="translate(57.541 9.566)">
    <path id="Path_161" data-name="Path 161" d="M481.673,378.067a2.142,2.142,0,0,1-.884-.178,1.665,1.665,0,0,1-.671-.549h-.054a6.655,6.655,0,0,1,.054.823V380.2h-.75v-7.178h.61l.1.678h.036a1.744,1.744,0,0,1,.674-.588,2.047,2.047,0,0,1,.881-.181,1.831,1.831,0,0,1,1.521.674,3.587,3.587,0,0,1-.009,3.786A1.835,1.835,0,0,1,481.673,378.067Zm-.109-4.5a1.33,1.33,0,0,0-1.1.42,2.165,2.165,0,0,0-.348,1.338v.167a2.479,2.479,0,0,0,.348,1.494,1.324,1.324,0,0,0,1.116.45,1.161,1.161,0,0,0,1.006-.52,2.466,2.466,0,0,0,.364-1.433,2.374,2.374,0,0,0-.364-1.421A1.2,1.2,0,0,0,481.564,373.569Z" transform="translate(-479.368 -370.943)" fill="#f9f9f9"/>
    <path id="Path_162" data-name="Path 162" d="M515.694,366.736h-.75V359.7h.75Z" transform="translate(-509.595 -359.703)" fill="#f9f9f9"/>
    <path id="Path_163" data-name="Path 163" d="M529.314,378.027l-.149-.705h-.036a2.078,2.078,0,0,1-.739.631,2.245,2.245,0,0,1-.92.165,1.655,1.655,0,0,1-1.155-.38,1.384,1.384,0,0,1-.418-1.08q0-1.5,2.4-1.573l.841-.027v-.307a1.254,1.254,0,0,0-.251-.861,1.031,1.031,0,0,0-.8-.278,3.267,3.267,0,0,0-1.4.38l-.231-.574a3.527,3.527,0,0,1,.8-.312,3.472,3.472,0,0,1,.875-.113,1.887,1.887,0,0,1,1.313.393,1.642,1.642,0,0,1,.427,1.261v3.381Zm-1.695-.529a1.524,1.524,0,0,0,1.1-.384,1.422,1.422,0,0,0,.4-1.076v-.447l-.751.031a2.73,2.73,0,0,0-1.29.278.838.838,0,0,0-.4.766.772.772,0,0,0,.246.619A1.021,1.021,0,0,0,527.619,377.5Z" transform="translate(-518.902 -370.994)" fill="#f9f9f9"/>
    <path id="Path_164" data-name="Path 164" d="M555.222,373.533h.8l1.085,2.825a10.8,10.8,0,0,1,.443,1.4h.036q.059-.231.246-.789t1.227-3.433h.8l-2.129,5.641a2.814,2.814,0,0,1-.739,1.187,1.572,1.572,0,0,1-1.037.35,3.037,3.037,0,0,1-.678-.077v-.6a2.619,2.619,0,0,0,.556.054,1.146,1.146,0,0,0,1.1-.868l.276-.7Z" transform="translate(-543.818 -371.454)" fill="#f9f9f9"/>
  </g>
  <g id="Group_893" data-name="Group 893" transform="translate(23.336 9.012)">
    <path id="Path_165" data-name="Path 165" d="M380.408,374.486a1.688,1.688,0,0,1-.135,2.87.729.729,0,0,0-.29.508.568.568,0,0,0,.27.445l.373.29a1.8,1.8,0,0,1,.87,1.451c0,.974-.943,1.958-2.725,1.958-1.5,0-2.228-.715-2.228-1.482a1.491,1.491,0,0,1,.8-1.264,4.466,4.466,0,0,1,1.979-.477,1.084,1.084,0,0,1-.311-.7.935.935,0,0,1,.1-.4c-.114.011-.228.021-.332.021a1.638,1.638,0,0,1-1.72-1.626,1.864,1.864,0,0,1,.663-1.389,2.826,2.826,0,0,1,1.855-.57h2.134l-.663.373Zm-.736,4.6a1.61,1.61,0,0,0-.238-.011,4.146,4.146,0,0,0-1.088.167,1.164,1.164,0,0,0-.891,1.067c0,.735.715,1.265,1.824,1.265.994,0,1.523-.478,1.523-1.119C380.8,379.925,380.46,379.647,379.672,379.087Zm.3-1.969a1.048,1.048,0,0,0,.258-.757c0-.746-.445-1.906-1.3-1.906a.968.968,0,0,0-.726.342,1.2,1.2,0,0,0-.228.767c0,.694.4,1.844,1.3,1.844A1.061,1.061,0,0,0,379.973,377.118Z" transform="translate(-357.797 -371.393)" fill="#f9f9f9"/>
    <path id="Path_166" data-name="Path 166" d="M344.6,378.09a2.441,2.441,0,0,1-2.524-2.442,2.563,2.563,0,0,1,2.68-2.513,2.418,2.418,0,0,1,2.472,2.441A2.528,2.528,0,0,1,344.6,378.09Zm1.293-.838a1.871,1.871,0,0,0,.311-1.149c0-.911-.434-2.648-1.717-2.648a1.441,1.441,0,0,0-.931.352,1.565,1.565,0,0,0-.476,1.262c0,1.023.507,2.709,1.759,2.709A1.321,1.321,0,0,0,345.89,377.252Z" transform="translate(-328.509 -370.562)" fill="#f9f9f9"/>
    <path id="Path_167" data-name="Path 167" d="M307.3,378.09a2.441,2.441,0,0,1-2.524-2.442,2.564,2.564,0,0,1,2.68-2.513,2.418,2.418,0,0,1,2.472,2.441A2.528,2.528,0,0,1,307.3,378.09Zm1.293-.838a1.874,1.874,0,0,0,.31-1.149c0-.911-.435-2.648-1.718-2.648a1.441,1.441,0,0,0-.931.352,1.565,1.565,0,0,0-.476,1.262c0,1.023.507,2.709,1.759,2.709A1.322,1.322,0,0,0,308.594,377.252Z" transform="translate(-296.82 -370.562)" fill="#f9f9f9"/>
    <path id="Path_168" data-name="Path 168" d="M259.022,364.695l-1.487.343a11.023,11.023,0,0,1-1.716.176,3.7,3.7,0,0,1-3.963-3.765,3.931,3.931,0,0,1,4.2-3.889,5.987,5.987,0,0,1,1.591.218,4.055,4.055,0,0,1,1.373.645l-.863.822-.364.083.26-.416a2.972,2.972,0,0,0-2.226-.977A2.873,2.873,0,0,0,252.948,361a3.678,3.678,0,0,0,3.682,3.8,3.1,3.1,0,0,0,1.321-.26v-1.674l-1.57.083.832-.448h2.205l-.27.26a.243.243,0,0,0-.1.166c-.011.094-.021.4-.021.5Z" transform="translate(-251.856 -357.328)" fill="#f9f9f9"/>
    <path id="Path_169" data-name="Path 169" d="M411.63,363.086c-.343-.031-.415-.093-.415-.5V356.7c0-.022,0-.045.006-.067.042-.364.146-.426.469-.614H410.2l-.78.375h.8v6.422c0,.207-.041.239-.281.551h1.841l.385-.228C411.984,363.117,411.807,363.107,411.63,363.086Z" transform="translate(-385.732 -356.019)" fill="#f9f9f9"/>
    <path id="Path_170" data-name="Path 170" d="M430.96,377.742c-.113.062-.227.135-.34.186a2.4,2.4,0,0,1-1,.2,2.207,2.207,0,0,1-1.374-.4,2.673,2.673,0,0,1-1.053-2.18,2.341,2.341,0,0,1,2.365-2.386,2.008,2.008,0,0,1,1.064.289,1.71,1.71,0,0,1,.722,1.022l-2.427.982-.8.062a2.294,2.294,0,0,0,2.128,2.076,2.669,2.669,0,0,0,1.26-.361Zm-.97-3.078c.2-.072.3-.134.3-.279a1.025,1.025,0,0,0-1.023-.888,1.272,1.272,0,0,0-1.188,1.436c0,.176.021.361.031.548Z" transform="translate(-400.83 -370.58)" fill="#f9f9f9"/>
    <g id="Group_892" data-name="Group 892" transform="translate(30.819 2.576)">
      <path id="Path_171" data-name="Path 171" d="M457.154,373.227v.681h-.083v-.681h-.226v-.071h.534v.071Z" transform="translate(-456.846 -373.156)" fill="#f9f9f9"/>
      <path id="Path_172" data-name="Path 172" d="M461.866,373.908v-.688h0l-.21.688h-.065l-.212-.688h0v.688H461.3v-.752h.129l.192.608h0l.189-.608h.131v.752Z" transform="translate(-460.629 -373.156)" fill="#f9f9f9"/>
    </g>
  </g>
  <g id="Group_894" data-name="Group 894" transform="translate(23.353 5.067)">
    <path id="Path_173" data-name="Path 173" d="M254.022,332.206h-.517a3.429,3.429,0,0,0-.147-.6h-.746a3.122,3.122,0,0,0-.152.6h-.486q0-.063.377-1.034a8.126,8.126,0,0,0,.377-1.069h.61a8.927,8.927,0,0,0,.342,1.054A9.232,9.232,0,0,1,254.022,332.206Zm-.746-.912a9.135,9.135,0,0,1-.276-.9h-.026a9.452,9.452,0,0,1-.286.9Z" transform="translate(-251.974 -330.054)" fill="#fcfdfd"/>
    <path id="Path_174" data-name="Path 174" d="M269.653,332.206h-.4a3.933,3.933,0,0,0-.444-.7,3.851,3.851,0,0,1-.53-.913h-.026a5.688,5.688,0,0,1,.04.64q0,.4.023.972h-.4q.024-.5.024-1.1t-.024-1h.48a3.038,3.038,0,0,0,.4.683,4.024,4.024,0,0,1,.488.861h.024a6.134,6.134,0,0,1-.039-.646q0-.438-.023-.9h.4q-.023.4-.023,1T269.653,332.206Z" transform="translate(-265.523 -330.054)" fill="#fcfdfd"/>
    <path id="Path_175" data-name="Path 175" d="M284.977,331.026a1.191,1.191,0,0,1-.294.8,1.026,1.026,0,0,1-.824.342q-.239,0-.659-.019.021-.488.021-1.1,0-.588-.021-1h.283q.069,0,.207,0l.179,0a1.089,1.089,0,0,1,.846.291A1,1,0,0,1,284.977,331.026Zm-.441.069a.778.778,0,0,0-.181-.522.685.685,0,0,0-.552-.212,1.721,1.721,0,0,0-.191.014q.016.323.016.675,0,.386.016.766a1.071,1.071,0,0,0,.21.021.61.61,0,0,0,.514-.216A.832.832,0,0,0,284.536,331.1Z" transform="translate(-278.505 -329.999)" fill="#fcfdfd"/>
    <path id="Path_176" data-name="Path 176" d="M299.753,332.15h-.478a3.171,3.171,0,0,0-.287-.706.377.377,0,0,0-.323-.134l-.179,0q0,.415.015.838h-.449q.021-.488.021-1.1,0-.588-.021-1h.279l.2,0q.154,0,.285,0,.741,0,.741.507a.569.569,0,0,1-.423.56v.024a.5.5,0,0,1,.286.254A5.621,5.621,0,0,1,299.753,332.15Zm-.606-1.486q0-.321-.413-.321a1.406,1.406,0,0,0-.268.023q.018.25.018.652l.15,0Q299.148,331.022,299.148,330.665Z" transform="translate(-291.124 -329.999)" fill="#fcfdfd"/>
    <path id="Path_177" data-name="Path 177" d="M313.153,330.841a1.16,1.16,0,0,1-.3.822.985.985,0,0,1-.751.326.949.949,0,0,1-.714-.3,1.055,1.055,0,0,1-.287-.761,1.159,1.159,0,0,1,.3-.822.985.985,0,0,1,.751-.326.95.95,0,0,1,.714.3A1.054,1.054,0,0,1,313.153,330.841Zm-.446.047a.834.834,0,0,0-.173-.547.532.532,0,0,0-.426-.21.492.492,0,0,0-.4.212.844.844,0,0,0-.165.534.832.832,0,0,0,.174.547.532.532,0,0,0,.426.211.492.492,0,0,0,.4-.212A.845.845,0,0,0,312.707,330.888Z" transform="translate(-302.208 -329.78)" fill="#fcfdfd"/>
    <path id="Path_178" data-name="Path 178" d="M328.262,332.206H327.8q.021-.5.021-1.1t-.021-1h.457q-.021.407-.021,1T328.262,332.206Z" transform="translate(-316.404 -330.054)" fill="#fcfdfd"/>
    <path id="Path_179" data-name="Path 179" d="M336.375,331.026a1.191,1.191,0,0,1-.294.8,1.026,1.026,0,0,1-.824.342q-.239,0-.659-.019.021-.488.021-1.1,0-.588-.021-1h.283q.069,0,.207,0l.179,0a1.089,1.089,0,0,1,.846.291A1.006,1.006,0,0,1,336.375,331.026Zm-.441.069a.779.779,0,0,0-.181-.522.686.686,0,0,0-.552-.212,1.718,1.718,0,0,0-.191.014q.016.323.016.675,0,.386.016.766a1.071,1.071,0,0,0,.21.021.61.61,0,0,0,.514-.216A.832.832,0,0,0,335.935,331.1Z" transform="translate(-322.177 -329.999)" fill="#fcfdfd"/>
    <path id="Path_180" data-name="Path 180" d="M355.5,332.206h-.517a3.406,3.406,0,0,0-.147-.6h-.746a3.115,3.115,0,0,0-.152.6h-.486q0-.063.377-1.034a8.116,8.116,0,0,0,.377-1.069h.61a8.909,8.909,0,0,0,.342,1.054A9.265,9.265,0,0,1,355.5,332.206Zm-.746-.912a9.164,9.164,0,0,1-.276-.9h-.026a9.447,9.447,0,0,1-.286.9Z" transform="translate(-338.194 -330.054)" fill="#fcfdfd"/>
    <path id="Path_181" data-name="Path 181" d="M370.93,330.6a.63.63,0,0,1-.287.57,1.275,1.275,0,0,1-.7.184q-.076,0-.108,0,0,.3.018.8H369.4q.021-.467.021-1.1,0-.581-.021-1h.281l.229,0q.17,0,.294,0a.924.924,0,0,1,.518.139A.47.47,0,0,1,370.93,330.6Zm-.417.089q0-.345-.459-.345a1.289,1.289,0,0,0-.242.024q.018.305.018.691c.027,0,.058,0,.094,0Q370.514,331.06,370.514,330.687Z" transform="translate(-351.742 -329.999)" fill="#fcfdfd"/>
    <path id="Path_182" data-name="Path 182" d="M383.814,330.6a.63.63,0,0,1-.287.57,1.276,1.276,0,0,1-.7.184c-.051,0-.087,0-.108,0q0,.3.018.8h-.454q.021-.467.021-1.1,0-.581-.021-1h.281l.229,0q.17,0,.294,0a.924.924,0,0,1,.518.139A.47.47,0,0,1,383.814,330.6Zm-.417.089q0-.345-.459-.345a1.288,1.288,0,0,0-.242.024q.018.305.018.691.04,0,.094,0Q383.4,331.06,383.4,330.687Z" transform="translate(-362.689 -329.999)" fill="#fcfdfd"/>
    <path id="Path_183" data-name="Path 183" d="M401.931,330.841a1.16,1.16,0,0,1-.3.822.985.985,0,0,1-.751.326.949.949,0,0,1-.714-.3,1.055,1.055,0,0,1-.287-.761,1.16,1.16,0,0,1,.3-.822.986.986,0,0,1,.751-.326.95.95,0,0,1,.714.3A1.055,1.055,0,0,1,401.931,330.841Zm-.446.047a.833.833,0,0,0-.173-.547.532.532,0,0,0-.426-.21.493.493,0,0,0-.4.212.844.844,0,0,0-.165.534.832.832,0,0,0,.174.547.532.532,0,0,0,.425.211.491.491,0,0,0,.4-.212A.844.844,0,0,0,401.485,330.888Z" transform="translate(-377.639 -329.78)" fill="#fcfdfd"/>
    <path id="Path_184" data-name="Path 184" d="M418.317,332.206h-.4a3.932,3.932,0,0,0-.444-.7,3.855,3.855,0,0,1-.53-.913h-.026a5.73,5.73,0,0,1,.04.64q0,.4.023.972h-.4q.024-.5.024-1.1t-.024-1h.48a3.043,3.043,0,0,0,.4.683,4.022,4.022,0,0,1,.488.861h.024a6.089,6.089,0,0,1-.039-.646q0-.438-.023-.9h.4q-.023.4-.023,1T418.317,332.206Z" transform="translate(-391.836 -330.054)" fill="#fcfdfd"/>
  </g>
</svg>
