<svg id="Group_901" data-name="Group 901" xmlns="http://www.w3.org/2000/svg" width="78.436" height="25.657" viewBox="0 0 78.436 25.657">
  <path id="Path_185" data-name="Path 185" d="M175.077,958.015a3.467,3.467,0,0,1-3.466,3.468h-71.5a3.468,3.468,0,0,1-3.467-3.468V939.292a3.468,3.468,0,0,1,3.467-3.467h71.5a3.467,3.467,0,0,1,3.466,3.467Z" transform="translate(-96.641 -935.825)" fill="#505050"/>
  <g id="Group_897" data-name="Group 897" transform="translate(5.261 3.989)">
    <path id="Path_186" data-name="Path 186" d="M146.83,998.717a12.706,12.706,0,0,1-1.148,2.145c-.746,1.136-1.8,2.55-3.1,2.562-1.158.011-1.455-.754-3.026-.745s-1.9.758-3.057.748c-1.3-.012-2.3-1.289-3.045-2.425-2.086-3.175-2.3-6.9-1.018-8.883a4.616,4.616,0,0,1,3.713-2.232c1.381,0,2.249.757,3.39.757,1.107,0,1.782-.759,3.379-.759a4.505,4.505,0,0,1,3.4,1.793A3.886,3.886,0,0,0,146.83,998.717Z" transform="translate(-131.637 -985.746)" fill="#fff"/>
    <g id="Group_896" data-name="Group 896" transform="translate(7.302)">
      <path id="Path_187" data-name="Path 187" d="M182.974,965.225a3.876,3.876,0,0,0,.861-2.87,4.187,4.187,0,0,0-2.7,1.454,3.6,3.6,0,0,0-.883,2.8A3.534,3.534,0,0,0,182.974,965.225Z" transform="translate(-180.207 -962.355)" fill="#fff"/>
    </g>
  </g>
  <g id="Group_900" data-name="Group 900" transform="translate(23.821 4.027)">
    <g id="Group_898" data-name="Group 898" transform="translate(0 6.146)">
      <path id="Path_188" data-name="Path 188" d="M258.07,1004.42l-2.988,8.8h1.368l.892-2.7h2.893l.917,2.7h1.406l-3-8.8Zm.709,1.446c.1.393.21.8.35,1.241l.805,2.332h-2.292l.794-2.347C258.557,1006.711,258.672,1006.3,258.779,1005.866Z" transform="translate(-255.082 -1004.28)" fill="#fff"/>
      <path id="Path_189" data-name="Path 189" d="M311.4,1019.586a2.49,2.49,0,0,0-2.116,1.015l-.053-.875h-1.217l.007.112c.036.545.051,1.145.051,2.006v6.78H309.4v-3.164a2.336,2.336,0,0,0,1.819.782,2.744,2.744,0,0,0,2.016-.857,3.636,3.636,0,0,0,.89-2.56,3.54,3.54,0,0,0-.773-2.337A2.532,2.532,0,0,0,311.4,1019.586Zm-.332,1.1c1.186,0,1.717,1.1,1.717,2.188,0,1.4-.677,2.277-1.768,2.277a1.613,1.613,0,0,1-1.568-1.235,1.7,1.7,0,0,1-.047-.431v-1.07a2,2,0,0,1,.042-.329c.007-.036.014-.073.019-.108A1.685,1.685,0,0,1,311.068,1020.688Z" transform="translate(-300.056 -1017.166)" fill="#fff"/>
      <path id="Path_190" data-name="Path 190" d="M356.982,1019.586a2.491,2.491,0,0,0-2.116,1.015l-.053-.875H353.6l.007.112c.036.546.051,1.145.051,2.006v6.78h1.331v-3.164a2.335,2.335,0,0,0,1.819.782,2.748,2.748,0,0,0,2.017-.857,3.64,3.64,0,0,0,.89-2.56,3.541,3.541,0,0,0-.774-2.337A2.531,2.531,0,0,0,356.982,1019.586Zm-.331,1.1c1.186,0,1.717,1.1,1.717,2.188,0,1.4-.678,2.277-1.768,2.277a1.613,1.613,0,0,1-1.568-1.235,1.7,1.7,0,0,1-.047-.431v-1.07a1.98,1.98,0,0,1,.042-.33c.007-.036.013-.072.019-.107A1.684,1.684,0,0,1,356.65,1020.688Z" transform="translate(-338.785 -1017.166)" fill="#fff"/>
      <path id="Path_191" data-name="Path 191" d="M415.313,1007.355c-1.242-.481-1.64-.859-1.64-1.558,0-.588.468-1.182,1.513-1.182a3.024,3.024,0,0,1,1.562.392l.113.07.376-1.111-.074-.043a3.857,3.857,0,0,0-1.938-.435c-1.7,0-2.882,1-2.882,2.436,0,1.157.742,1.965,2.336,2.544,1.129.422,1.55.854,1.55,1.6,0,.839-.649,1.36-1.692,1.36a3.642,3.642,0,0,1-1.918-.544l-.115-.074-.357,1.136.066.044a4.559,4.559,0,0,0,2.249.578c2.287,0,3.1-1.395,3.1-2.589C417.558,1008.744,416.908,1007.984,415.313,1007.355Z" transform="translate(-388.532 -1003.488)" fill="#fff"/>
      <path id="Path_192" data-name="Path 192" d="M451.306,1010.439l-1.305.41v1.106h-.955v1.063H450v3.258a2.49,2.49,0,0,0,.461,1.688,1.706,1.706,0,0,0,1.288.505,3.136,3.136,0,0,0,1.029-.159l.075-.026-.064-1.066-.128.039a2,2,0,0,1-.619.072c-.516,0-.736-.326-.736-1.092v-3.22h1.605v-1.063h-1.605Z" transform="translate(-419.884 -1009.394)" fill="#fff"/>
      <path id="Path_193" data-name="Path 193" d="M478.824,1019.586a3.134,3.134,0,0,0-3.162,3.379,3.036,3.036,0,0,0,3.06,3.277h.012a3.137,3.137,0,0,0,3.162-3.391,3.362,3.362,0,0,0-.848-2.354A2.961,2.961,0,0,0,478.824,1019.586Zm-.038,1.051c1.2,0,1.742,1.167,1.742,2.252,0,1.334-.744,2.3-1.767,2.3h-.013c-1.009,0-1.742-.952-1.742-2.264C477.006,1021.787,477.556,1020.637,478.786,1020.637Z" transform="translate(-442.499 -1017.166)" fill="#fff"/>
      <path id="Path_194" data-name="Path 194" d="M525.524,1019.648l-.08-.02a1.285,1.285,0,0,0-.331-.041,1.9,1.9,0,0,0-1.669,1.071l-.039-.931h-1.194l.008.112c.035.527.05,1.118.05,1.916l-.012,4.347h1.331v-3.392a3.433,3.433,0,0,1,.037-.516,1.471,1.471,0,0,1,1.4-1.341,3.41,3.41,0,0,1,.357.022l.142.015Z" transform="translate(-482.05 -1017.166)" fill="#fff"/>
      <path id="Path_195" data-name="Path 195" d="M547.14,1019.5c-1.772,0-3.009,1.415-3.009,3.442a2.976,2.976,0,0,0,3.136,3.213,5.1,5.1,0,0,0,2.107-.4l.08-.036-.256-.992-.111.045a4.125,4.125,0,0,1-1.667.3,1.85,1.85,0,0,1-1.993-1.929l4.3.013.017-.085a2.96,2.96,0,0,0,.04-.555C549.78,1021.123,549.088,1019.5,547.14,1019.5Zm-.089,1.012a1.313,1.313,0,0,1,.977.373,1.894,1.894,0,0,1,.458,1.239h-3.035A1.7,1.7,0,0,1,547.051,1020.514Z" transform="translate(-500.674 -1017.094)" fill="#fff"/>
    </g>
    <g id="Group_899" data-name="Group 899">
      <path id="Path_196" data-name="Path 196" d="M255.082,963.967a9.7,9.7,0,0,1,1.276-.086,2.848,2.848,0,0,1,1.874.513,1.822,1.822,0,0,1,.659,1.5,2.107,2.107,0,0,1-.666,1.618,3.088,3.088,0,0,1-2.052.6,9.24,9.24,0,0,1-1.091-.05Zm.6,3.687a4.287,4.287,0,0,0,.6.025c1.276.006,1.969-.642,1.969-1.766.007-.995-.611-1.606-1.873-1.606a3.792,3.792,0,0,0-.7.055Z" transform="translate(-255.082 -963.689)" fill="#fff"/>
      <path id="Path_197" data-name="Path 197" d="M285.656,974.565a1.5,1.5,0,0,1-1.592-1.538,1.542,1.542,0,0,1,1.647-1.587,1.488,1.488,0,0,1,1.6,1.532,1.548,1.548,0,0,1-1.647,1.594Zm.021-.408a1.064,1.064,0,0,0,1.009-1.167,1.016,1.016,0,1,0-1.016,1.167Z" transform="translate(-279.707 -970.112)" fill="#fff"/>
      <path id="Path_198" data-name="Path 198" d="M308.518,971.891l.446,1.513c.089.333.178.648.24.957h.021c.076-.3.185-.624.3-.951l.542-1.52h.508l.515,1.495c.123.352.22.673.295.976h.021a8.285,8.285,0,0,1,.254-.97l.473-1.5h.6l-1.071,2.989h-.549l-.508-1.427a9.789,9.789,0,0,1-.3-.988h-.014a8.217,8.217,0,0,1-.3.994l-.535,1.42H308.9l-1-2.989Z" transform="translate(-299.959 -970.495)" fill="#fff"/>
      <path id="Path_199" data-name="Path 199" d="M343.856,972.317c0-.315-.007-.562-.028-.809h.536l.034.488h.014a1.258,1.258,0,0,1,1.1-.556,1.137,1.137,0,0,1,1.173,1.272V974.5h-.6v-1.723c0-.482-.2-.889-.769-.889a.861.861,0,0,0-.81.556.732.732,0,0,0-.041.253v1.8h-.6Z" transform="translate(-330.486 -970.112)" fill="#fff"/>
      <path id="Path_200" data-name="Path 200" d="M369.346,962.607h.6v4.385h-.6Z" transform="translate(-352.167 -962.607)" fill="#fff"/>
      <path id="Path_201" data-name="Path 201" d="M380.024,974.565a1.5,1.5,0,0,1-1.592-1.538,1.542,1.542,0,0,1,1.647-1.587,1.489,1.489,0,0,1,1.6,1.532,1.548,1.548,0,0,1-1.647,1.594Zm.02-.408a1.064,1.064,0,0,0,1.009-1.167,1.016,1.016,0,1,0-1.016,1.167Z" transform="translate(-359.887 -970.112)" fill="#fff"/>
      <path id="Path_202" data-name="Path 202" d="M405.958,973.781a4.505,4.505,0,0,0,.048.716h-.542l-.055-.376h-.02a1.277,1.277,0,0,1-1.016.445.906.906,0,0,1-1.016-.859c0-.723.714-1.118,2-1.112v-.062c0-.247-.075-.7-.755-.692a1.733,1.733,0,0,0-.872.222l-.137-.364a2.339,2.339,0,0,1,1.1-.259,1.111,1.111,0,0,1,1.269,1.223Zm-.59-.809c-.659-.012-1.407.093-1.407.673a.5.5,0,0,0,.563.519.837.837,0,0,0,.817-.5.5.5,0,0,0,.028-.173Z" transform="translate(-381.065 -970.112)" fill="#fff"/>
      <path id="Path_203" data-name="Path 203" d="M428.6,962.607v3.613c0,.266.007.568.027.772h-.542l-.027-.519h-.014a1.243,1.243,0,0,1-1.125.587,1.425,1.425,0,0,1-1.428-1.519,1.49,1.49,0,0,1,1.489-1.606,1.142,1.142,0,0,1,1,.451H428v-1.779Zm-.6,2.613a.906.906,0,0,0-.027-.235.873.873,0,0,0-.871-.624,1.023,1.023,0,0,0-1,1.149.992.992,0,0,0,.981,1.112.9.9,0,0,0,.885-.648.848.848,0,0,0,.027-.235Z" transform="translate(-399.875 -962.607)" fill="#fff"/>
      <path id="Path_204" data-name="Path 204" d="M462.512,974.565a1.5,1.5,0,0,1-1.592-1.538,1.542,1.542,0,0,1,1.647-1.587,1.488,1.488,0,0,1,1.6,1.532,1.548,1.548,0,0,1-1.647,1.594Zm.021-.408a1.063,1.063,0,0,0,1.009-1.167,1.015,1.015,0,1,0-1.016,1.167Z" transform="translate(-429.974 -970.112)" fill="#fff"/>
      <path id="Path_205" data-name="Path 205" d="M487.426,972.317c0-.315-.007-.562-.028-.809h.535l.035.488h.014a1.258,1.258,0,0,1,1.1-.556,1.137,1.137,0,0,1,1.174,1.272V974.5h-.6v-1.723c0-.482-.2-.889-.769-.889a.862.862,0,0,0-.81.556.736.736,0,0,0-.041.253v1.8h-.6Z" transform="translate(-452.471 -970.112)" fill="#fff"/>
      <path id="Path_206" data-name="Path 206" d="M521.189,967.127v.716h.864v.414h-.864v1.612c0,.37.117.581.453.581a1.244,1.244,0,0,0,.35-.037l.027.414a1.814,1.814,0,0,1-.535.074.915.915,0,0,1-.652-.229,1.085,1.085,0,0,1-.233-.785v-1.63h-.515v-.414h.515v-.55Z" transform="translate(-480.243 -966.447)" fill="#fff"/>
      <path id="Path_207" data-name="Path 207" d="M537.705,962.607h.6v1.865h.014a1.025,1.025,0,0,1,.433-.383,1.274,1.274,0,0,1,.618-.154,1.136,1.136,0,0,1,1.16,1.278v1.779h-.6v-1.717c0-.488-.2-.889-.769-.889a.868.868,0,0,0-.81.544.6.6,0,0,0-.041.259v1.8h-.6Z" transform="translate(-495.214 -962.607)" fill="#fff"/>
      <path id="Path_208" data-name="Path 208" d="M562.026,973.059a1.012,1.012,0,0,0,1.133,1.038,2.518,2.518,0,0,0,.92-.149l.11.383a2.971,2.971,0,0,1-1.112.192,1.473,1.473,0,0,1-1.634-1.507,1.522,1.522,0,0,1,1.565-1.618,1.308,1.308,0,0,1,1.366,1.408,1.254,1.254,0,0,1-.02.259Zm1.764-.389a.8.8,0,0,0-.831-.883.94.94,0,0,0-.926.883Z" transform="translate(-515.384 -970.076)" fill="#fff"/>
    </g>
  </g>
</svg>
